# xmcd
# 
# Track frame offsets:
#     150
#     13254
#     44290
#     53005
#     66894
#     76168
#     117308
#     132965
#     142754
#     178750
#     192034
#     210506
#     218841
#     235981
#     245392
#     301883
#     317387
# 
# Disc length: 4372
# 
# Revision: 0
# Processed by: cddbd v1.5.2PL0 Copyright (c) Steve Scherf et al.
# Submitted via: fre:ac v1.0.27
# 
DISCID=e2111211
DTITLE=James Newton Howard - Fantastic Beasts and Where to Find Them: Original Motion Picture Soundtrack (Deluxe Edition)
DYEAR=2016
DGENRE=Soundtrack
TTITLE0=Main Titles - Fantastic Beasts and Where to Find Them
TTITLE1=There Are Witches Among Us - The Bank - The Niffler
TTITLE2=Tina Takes Newt In - Macusa Headquarters
TTITLE3=Pie or Strudel - Escaping Queenie and Tina's Place
TTITLE4=Credence Hands Out Leaflets
TTITLE5=Inside the Case
TTITLE6=The Erumpent
TTITLE7=In the Cells
TTITLE8=Tina and Newt Trial - Let's Get The Good Stuff Out - You're One of Us Now - Swooping Evil
TTITLE9=Gnarlak Negotiations
TTITLE10=The Demiguise and The Occamy
TTITLE11=A Close Friend
TTITLE12=The Obscurus - Rooftop Chase
TTITLE13=He's Listening To You Tina
TTITLE14=Relieve Him of His Wand - Newt Releases The Thunderbird - Jacob's Farewell
TTITLE15=Newt Says Goodbye to Tina - Jacob's Bakery
TTITLE16=End Titles - Fantastic Beasts and Where to Find Them
EXTD=
EXTT0=
EXTT1=
EXTT2=
EXTT3=
EXTT4=
EXTT5=
EXTT6=
EXTT7=
EXTT8=
EXTT9=
EXTT10=
EXTT11=
EXTT12=
EXTT13=
EXTT14=
EXTT15=
EXTT16=
PLAYORDER=
